<svg xmlns="http://www.w3.org/2000/svg" xmlns:xlink="http://www.w3.org/1999/xlink" id="Layer_1" x="0px" y="0px" width="700px" height="500px" viewBox="0 0 700 500" xml:space="preserve"><ellipse opacity="0.8" fill="#E2ECF8" cx="330.723" cy="478.576" rx="240.018" ry="10.408"></ellipse><circle fill="#E2ECF8" cx="121.023" cy="121.22" r="24.482"></circle><g transform="translate(300,300)">	<path fill="#E2ECF8" d="M179.387-204.687c32.909,38.128,62.753,66.27,78.527,102.016c15.772,35.86,17.589,79.208,2.155,113.933  c-15.433,34.723-48.229,60.709-82.044,74.553c-33.816,13.732-68.654,15.32-113.705,29.164  C19.27,128.936-35.88,155.264-86.604,146.98c-50.725-8.285-97.023-51.178-95.208-97.479c1.929-46.299,51.859-96.002,85.676-135.719  c33.93-39.717,51.519-69.562,77.278-109.959c25.646-40.512,59.463-91.577,94.413-93.052  C110.393-290.816,146.479-242.816,179.387-204.687z"></path></g><g>	<ellipse fill="#21205C" cx="349.579" cy="464.709" rx="7.888" ry="9.779"></ellipse>	<ellipse fill="#21205C" cx="432.021" cy="464.709" rx="7.888" ry="9.779"></ellipse></g><path fill="#33458E" d="M432.973,443.542h-23.538c-6.55,0-11.858-5.309-11.858-11.858v-93.367h-15.133v93.367 c0,6.55-5.31,11.858-11.858,11.858h-21.956h-2.304c-3.561,0-6.445,2.886-6.445,6.445v1.358v11.565c0,0.795,0.645,1.439,1.441,1.439 h5.867c0.795,0,1.441-0.645,1.441-1.439v-5.12c0-3.561,2.885-6.445,6.444-6.445h71.454c3.559,0,6.445,2.885,6.445,6.445v5.12 c0,0.795,0.645,1.439,1.44,1.439h5.868c0.795,0,1.44-0.645,1.44-1.439v-11.565v-1.358c0-3.56-2.886-6.445-6.445-6.445H432.973z"></path><path fill="#3057A7" d="M398.647,349.06h-18.459c-1.235,0-2.239-1.002-2.239-2.239v-5.926c0-1.236,1.004-2.239,2.239-2.239h18.459 c1.237,0,2.239,1.003,2.239,2.239v5.926C400.887,348.058,399.885,349.06,398.647,349.06z"></path><path fill="#1D4698" d="M465.315,327.467v9.511c0,2.367-1.914,4.28-4.279,4.28H329.745l0.128-13.791H465.315z"></path><path fill="#1D4698" d="M494.8,167.724l-29.484,159.743H430.46c0,0,9.871-3.387,11.263-25.819 c0.708-11.333-0.754-27.525-6.739-50.597h1.729c6.704,0,12.145-5.439,12.145-12.144v-84.615c0-1.311-0.163-2.563-0.453-3.781h32.061 C489.58,150.511,496.447,158.769,494.8,167.724z"></path><path fill="#3057A7" d="M481.206,167.724l-29.484,159.743H430.46c0,0,9.871-3.387,11.263-25.819 c0.708-11.333-0.754-27.525-6.739-50.597h1.729c6.704,0,12.145-5.439,12.145-12.144v-84.615c0-1.311-0.163-2.563-0.453-3.781h18.466 C475.986,150.511,482.854,158.769,481.206,167.724z"></path><path fill="#1D4698" d="M435.054,138.54L435.054,138.54c0,0-8.26-27.951-8.26-58.057c0-30.105-11.707-40.379-24.371-40.379h-26.912 c-14.741,0-26.901,11.5-27.764,26.215c-0.72,12.302-1.817,25.902-3.385,33.518c-3.345,16.248-10.25,47.559-16.235,64.04 c-5.985,16.481-1.206,30.578,13.369,30.817c0,0-1.195,29.866,38.469,21.743c37.611-7.704,62.976-19.047,58.979-64.419 C438.528,147.316,437.221,142.732,435.054,138.54z"></path><path fill="#2A2C70" d="M361.38,74.047c-2.452,0-4.915-0.41-6.78-1.642c-1.857-1.228-2.904-3.117-3.113-5.619 c-0.938-11.266,8.247-18.369,8.639-18.666c0.255-0.193,0.618-0.142,0.813,0.112c0.193,0.255,0.144,0.618-0.111,0.813 c-0.092,0.069-9.068,7.026-8.184,17.645c0.18,2.159,1.029,3.711,2.596,4.747c5.007,3.305,15.412-0.085,15.518-0.121 c0.302-0.102,0.633,0.065,0.732,0.368c0.101,0.304-0.064,0.632-0.368,0.733C370.824,72.516,366.12,74.047,361.38,74.047z"></path><path fill="#2A2C70" d="M400.337,70.312c-0.312,0-0.57-0.247-0.58-0.561c-0.004-0.111-0.381-11.175-1.378-14.862 c-0.083-0.309,0.099-0.627,0.408-0.711c0.313-0.086,0.63,0.1,0.711,0.409c1.032,3.816,1.402,14.667,1.419,15.126 c0.01,0.32-0.24,0.588-0.562,0.599C400.349,70.312,400.342,70.312,400.337,70.312z"></path><path fill="#FBE7D4" d="M445.306,144.291c-47.231,24.949-82.411,15.241-94.566,10.381c1.495-1.241,3.084-2.39,4.767-3.398 c6.728-4.025,16.018-9.651,21.621-13.316c4.396-2.876,5.927-7.667,6.298-12.005c0.43-5.046-0.719-9.465-0.719-9.465h-3.933 c-11.494,0-20.809-9.314-20.809-20.809V69.732h42.372l5.764,51.024c1.138,10.057,9.639,17.643,19.754,17.643h7.11 C437.952,138.399,442.395,140.695,445.306,144.291z"></path><path fill="#FCB715" d="M399.043,281.615c8.102,4.173,21.531,22.597,42.679,20.028c0.703-11.331-0.753-27.519-6.738-50.595h1.728 c6.704,0,12.145-5.439,12.145-12.144v-84.616c0-3.791-1.333-7.271-3.552-10.003c-47.227,24.956-82.413,15.25-94.562,10.389 c-3.293,2.743-6.123,6.021-8.332,9.729l-29.171,49.041c-1.81,3.028-5.069,4.884-8.595,4.884h-2.854v27.489h7.795 c4.431,0,8.653-1.937,11.542-5.289l32.779-38.08c0,0,8.061,27.649-1.564,71.801l0.004,0.007 C352.345,274.257,389.704,276.804,399.043,281.615z"></path><path fill="#FBE7D4" d="M314.99,460.772c0,0-2.092,2.538-5.705,5.652c2.491,1.402,5.295,3.621,7.397,7.083 c0,0,6.65-6.83,15.77-7.369c-1.034-2.863-2.286-5.59-3.74-7.664l0.195-22.044h-17.315L314.99,460.772z"></path><path fill="#21205C" d="M316.683,473.508c-2.102-3.462-4.906-5.681-7.397-7.083c-5.004,4.312-12.931,9.729-22.308,11.05 c0,0-4.883-0.395-7.11,2.912c-0.754,1.124,0,2.656,1.334,2.887c6.379,1.067,25.634,3.55,51.86-0.011 c1.634-0.232,2.818-1.683,2.667-3.317c-0.283-3.097-1.425-8.675-3.277-13.807C323.333,466.678,316.683,473.508,316.683,473.508z"></path><path fill="#1B4A9F" d="M293.191,307.371c-13.302,3.679-5.095,44.718-5.095,44.718l-0.003,0.016 c0.084,0.661,6.213,48.691,4.243,52.342c-1.971,3.677-5.091,11.889,4.246,18.118c0,0-4.246,15.565,10.764,13.861h4.246l0,0.005 h17.315l0.965-108.968h26.846C340.235,320.111,303.417,304.543,293.191,307.371z"></path><path fill="#243E90" d="M399.043,281.615c-9.339-4.812-46.698-7.358-46.698-7.358l-0.004-0.007c0,0.004-0.001,0.006-0.001,0.009 c0,0-43.578-9.628-53.484,0c-9.906,9.615-49.818,54.342-53.216,66.787c-2.192,8.039,0,13.305,0,13.305s-7.667,3.039-9.906,7.644 c-4.803,9.882,4.767,17.512,4.811,17.548h0.003c0,0,5.812,1.206,13.556,10.691l33.988-38.145c0,0,0.001,0.011,0.002,0.016 l0.003-0.016c0,0-8.208-41.039,5.095-44.718c10.226-2.828,47.044,12.74,63.526,20.092h73.741c0,0,9.869-3.382,11.263-25.819 C420.574,304.212,407.145,285.788,399.043,281.615z"></path><path fill="#FBE7D4" d="M240.548,379.542h-0.003H240.548l-13.015,23.489c0,0-2.701-0.676-6.71-1.828 c1.498,3.079,2.937,7.023,2.178,9.755c0,0,5.8-0.747,11.923,3.842c0.732-1.64,1.478-3.46,2.224-5.539l16.956-19.027 C246.36,380.748,240.548,379.542,240.548,379.542z"></path><path fill="#21205C" d="M223.001,410.958c0.759-2.731-0.68-6.676-2.178-9.755c-8.061-2.315-21.435-6.565-28.934-11.174 c-1.009-0.627-2.308-0.43-3.062,0.498c-0.359,0.43-0.533,0.951-0.533,1.485c0,0.522,0.174,1.044,0.521,1.473 c4.431,5.417,20.322,24.173,33.985,31.456c2.517,1.346,5.661,0.708,7.342-1.6c1.352-1.852,3.023-4.607,4.782-8.542 C228.801,410.211,223.001,410.958,223.001,410.958z"></path><path fill="#FDCB9D" d="M394.757,116.488c0,0-5.729,9.523-11.332,9.465c0.43-5.046-0.719-9.465-0.719-9.465H394.757z"></path><g>	<path fill="#D69629" d="M353.91,203.031c-0.24,0-0.466-0.15-0.549-0.391c-0.064-0.188-6.344-18.938,4.145-36.515  c0.164-0.277,0.521-0.365,0.795-0.2c0.275,0.164,0.366,0.52,0.202,0.795c-10.206,17.101-4.107,35.359-4.045,35.542  c0.104,0.303-0.057,0.633-0.359,0.737C354.036,203.021,353.972,203.031,353.91,203.031z"></path>	<path fill="#D69629" d="M367.343,234.646c-0.284,0-0.533-0.21-0.573-0.5c-0.044-0.317,0.177-0.61,0.495-0.654l60.603-8.417  l-3.647-61.165c-0.019-0.32,0.225-0.595,0.545-0.614c0.317-0.022,0.594,0.225,0.613,0.544l3.679,61.7  c0.019,0.302-0.199,0.567-0.499,0.609l-61.135,8.491C367.397,234.645,367.37,234.646,367.343,234.646z"></path>	<path fill="#D69629" d="M367.344,251.472c-0.199,0-0.384-0.103-0.49-0.271l-1.29-2.049c-0.171-0.271-0.09-0.629,0.181-0.8  c0.272-0.169,0.63-0.09,0.8,0.181l1.119,1.777l65.822-0.17h0.002c0.319,0,0.578,0.259,0.579,0.578  c0.002,0.32-0.258,0.581-0.578,0.582L367.344,251.472L367.344,251.472z"></path></g><path fill="#FFFFFF" d="M376.065,98.331c0,0-5.23-2.257-6.051-0.923c-0.821,1.333,2.564,2.974,7.077,2.974s8.001-2.769,7.077-4.308 C383.246,94.535,376.065,98.331,376.065,98.331z"></path><path fill="#FDCB9D" d="M377.484,104.223c-1.771,0-3.036-0.617-3.114-0.656c-0.285-0.143-0.401-0.49-0.26-0.776 c0.143-0.288,0.492-0.402,0.777-0.262c0.023,0.012,2.472,1.189,5.147-0.01c0.29-0.131,0.634-0.001,0.766,0.292 c0.131,0.292,0,0.635-0.293,0.766C379.429,104.062,378.39,104.223,377.484,104.223z"></path><path fill="#FDCB9D" d="M375.194,93.629c-1.145,0-2.05-0.503-2.502-0.929c-0.115-0.109-0.181-0.262-0.181-0.421v-14.36 c0-2.901-2.737-3.636-2.765-3.643c-0.31-0.08-0.497-0.396-0.418-0.706c0.08-0.31,0.392-0.498,0.706-0.418 c1.257,0.322,3.636,1.734,3.636,4.767v14.079c0.464,0.317,1.768,0.971,3.449-0.195c0.263-0.182,0.624-0.117,0.808,0.146 c0.183,0.264,0.117,0.625-0.146,0.807C376.855,93.398,375.97,93.629,375.194,93.629z"></path><g>	<circle fill="#21205C" cx="383.579" cy="82.458" r="2.452"></circle>	<circle fill="#21205C" cx="364.896" cy="82.458" r="2.452"></circle></g><circle fill="#FABFAC" cx="390.796" cy="88.29" r="3.96"></circle><path fill="#FABFAC" d="M364.901,88.291c0,2.192-1.774,3.956-3.968,3.956c-1.183,0-2.249-0.522-2.969-1.346v-5.231 c0.72-0.824,1.786-1.346,2.969-1.346C363.127,84.324,364.901,86.099,364.901,88.291z"></path><path fill="#21205C" d="M389.707,74.909c-0.053,0-0.107-0.008-0.162-0.023c-6.934-2.022-9.614-0.114-9.641-0.095 c-0.256,0.189-0.619,0.141-0.81-0.113c-0.192-0.253-0.148-0.611,0.103-0.806c0.123-0.095,3.093-2.309,10.672-0.099 c0.308,0.089,0.484,0.412,0.396,0.719C390.189,74.744,389.959,74.909,389.707,74.909z"></path><path fill="#21205C" d="M359.962,74.909c-0.212,0-0.417-0.118-0.519-0.321c-0.143-0.287-0.027-0.635,0.259-0.778 c3.857-1.929,8.251-0.572,8.437-0.512c0.305,0.097,0.474,0.422,0.378,0.728c-0.097,0.305-0.423,0.475-0.728,0.378 c-0.041-0.012-4.139-1.27-7.567,0.444C360.138,74.889,360.049,74.909,359.962,74.909z"></path><path fill="#FFFFFF" d="M414.1,50.234l-18.938-10.841c-1.866-3.104-5.258-5.192-9.137-5.192c-3.551,0-6.693,1.751-8.632,4.428 c-4.934-2.294-7.938-0.929-9.072-0.16c-1.948-2.586-5.034-4.269-8.514-4.269c-5.88,0-10.664,4.784-10.664,10.664 s4.784,10.664,10.664,10.664s10.665-4.784,10.665-10.664c0-1.987-0.557-3.842-1.507-5.436c0.878-0.599,3.425-1.792,7.79,0.184 c-0.883,1.552-1.395,3.342-1.395,5.252c0,5.88,4.784,10.664,10.664,10.664s10.664-4.784,10.664-10.664 c0-1.277-0.237-2.497-0.65-3.633l17.485,10.01c0.091,0.052,0.189,0.077,0.288,0.077c0.2,0,0.396-0.105,0.503-0.292 C414.475,50.748,414.378,50.393,414.1,50.234z M359.807,54.368c-5.24,0-9.504-4.264-9.504-9.504c0-5.241,4.264-9.504,9.504-9.504 c5.241,0,9.505,4.264,9.505,9.504C369.312,50.104,365.048,54.368,359.807,54.368z M386.024,54.368c-5.241,0-9.505-4.264-9.505-9.504 c0-5.241,4.264-9.504,9.505-9.504c5.24,0,9.504,4.264,9.504,9.504C395.528,50.104,391.265,54.368,386.024,54.368z"></path><path fill="#F9FCFD" d="M492.893,233.736c-0.015,0-0.029,0.003-0.045,0.003v-4.1c0-0.538-0.436-0.974-0.974-0.974h-19.812 c-0.536,0-0.973,0.436-0.973,0.974v24.231c0,0.537,0.437,0.973,0.973,0.973h19.812c0.538,0,0.974-0.436,0.974-0.973v-5.065 c0.016,0,0.03,0.003,0.045,0.003c3.472,0,6.296-3.381,6.296-7.536C499.188,237.117,496.364,233.736,492.893,233.736z  M492.893,246.488c-0.016,0-0.029-0.006-0.045-0.006v-10.419c0.016,0,0.029-0.006,0.045-0.006c2.191,0,3.976,2.34,3.976,5.216 S495.084,246.488,492.893,246.488z"></path><g>	<polygon fill="#21205C" points="478.217,269.979 470.769,269.979 400.203,478.102 407.551,478.102 474.492,280.669   541.434,478.102 548.782,478.102  "></polygon>	<polygon fill="#21205C" points="178.861,269.979 108.296,478.102 115.645,478.102 182.585,280.669 249.526,478.102   256.875,478.102 186.311,269.979  "></polygon></g><polygon fill="#6163AC" points="204.278,199.621 197.62,226.821 191.507,251.84 155.713,251.84 169.829,210.942 173.738,199.621 "></polygon><polygon fill="#FFFFFF" points="206.54,199.621 199.615,227.958 193.77,251.84 157.975,251.84 171.731,212.021 176.011,199.621 "></polygon><path fill="#4772B2" d="M202.401,248.845h-58.384c-1.109,0-2.008,0.899-2.008,2.009v1.981c0,1.108,0.899,2.008,2.008,2.008h58.384 c1.109,0,2.009-0.899,2.009-2.008v-1.981C204.41,249.744,203.51,248.845,202.401,248.845z"></path><polygon fill="#7E7DBC" points="206.54,199.621 199.615,227.958 197.62,226.821 171.731,212.021 169.829,210.942 173.738,199.621  "></polygon><path fill="#1D4698" d="M265.262,207.514H135.008c-1.884,0-3.701-1.527-4.061-3.411l-15.938-83.664 c-0.172-0.905,0.022-1.772,0.54-2.412l0.438-0.541c0.518-0.639,1.317-0.999,2.221-0.999h130.254c1.884,0,3.702,1.527,4.06,3.411 l15.938,83.664c0.172,0.904-0.022,1.772-0.54,2.412l-0.438,0.541C266.965,207.154,266.166,207.514,265.262,207.514z"></path><path fill="#FFFFFF" d="M265.319,204.975H137.063c-1.883,0-3.701-1.527-4.06-3.41l-15.558-81.666 c-0.358-1.884,0.877-3.411,2.761-3.411h128.256c1.884,0,3.702,1.527,4.06,3.411l15.558,81.666 C268.438,203.448,267.203,204.975,265.319,204.975z"></path><path fill="#2B569A" d="M263.499,201.988H137.745c-0.669,0-1.315-0.543-1.443-1.213l-15.256-80.088 c-0.128-0.669,0.312-1.212,0.981-1.212H247.78c0.669,0,1.316,0.542,1.443,1.212l15.256,80.088 C264.607,201.445,264.168,201.988,263.499,201.988z"></path><g>	<g>		<path fill="#6889C6" d="M126.72,127.877h1.915c0.529,0,0.876-0.429,0.775-0.957c-0.101-0.529-0.611-0.958-1.14-0.958h-1.915   c-0.529,0-0.876,0.429-0.775,0.958C125.68,127.448,126.19,127.877,126.72,127.877z"></path>		<path fill="#362656" d="M145.871,127.877h19.151c0.528,0,0.875-0.429,0.775-0.957c-0.101-0.529-0.611-0.958-1.14-0.958h-19.151   c-0.528,0-0.876,0.429-0.775,0.958C144.832,127.448,145.342,127.877,145.871,127.877z"></path>		<path fill="#775BA6" d="M168.852,127.877h1.915c0.529,0,0.875-0.429,0.775-0.957c-0.101-0.529-0.611-0.958-1.14-0.958h-1.916   c-0.528,0-0.875,0.429-0.774,0.958C167.813,127.448,168.323,127.877,168.852,127.877z"></path>		<path fill="#775BA6" d="M188.003,127.877h6.281c0.529,0,0.876-0.429,0.775-0.957c-0.101-0.529-0.611-0.958-1.14-0.958h-6.281   c-0.529,0-0.876,0.429-0.775,0.958C186.964,127.448,187.474,127.877,188.003,127.877z"></path>		<path fill="#735F9A" d="M174.598,127.877h9.575c0.529,0,0.875-0.429,0.775-0.957c-0.101-0.529-0.612-0.958-1.14-0.958h-9.575   c-0.529,0-0.876,0.429-0.775,0.958C173.558,127.448,174.068,127.877,174.598,127.877z"></path>		<path fill="#735F9A" d="M132.465,127.877h9.575c0.529,0,0.876-0.429,0.775-0.957c-0.101-0.529-0.611-0.958-1.14-0.958H132.1   c-0.529,0-0.876,0.429-0.775,0.958C131.426,127.448,131.936,127.877,132.465,127.877z"></path>		<path fill="#735F9A" d="M156.354,132.645c-0.101-0.529-0.611-0.958-1.14-0.958h-21.066c-0.529,0-0.876,0.429-0.775,0.958   c0.101,0.529,0.611,0.958,1.14,0.958h21.066C156.108,133.603,156.455,133.174,156.354,132.645z"></path>		<path fill="#F06496" d="M130.318,131.688h-2.873c-0.529,0-0.876,0.429-0.775,0.958c0.101,0.529,0.611,0.958,1.14,0.958h2.873   c0.529,0,0.876-0.429,0.775-0.958C131.357,132.116,130.847,131.688,130.318,131.688z"></path>		<path fill="#735F9A" d="M178.196,131.688h-19.152c-0.528,0-0.875,0.429-0.774,0.958c0.101,0.529,0.611,0.958,1.14,0.958h19.151   c0.528,0,0.875-0.429,0.774-0.958C179.235,132.116,178.725,131.688,178.196,131.688z"></path>		<path fill="#775BA6" d="M185.264,133.603c0.528,0,0.875-0.429,0.775-0.958c-0.1-0.529-0.611-0.958-1.14-0.958h-2.873   c-0.528,0-0.875,0.429-0.775,0.958c0.101,0.529,0.611,0.958,1.14,0.958H185.264z"></path>		<path fill="#735F9A" d="M195.01,131.688h-6.281c-0.529,0-0.876,0.429-0.775,0.958c0.101,0.529,0.611,0.958,1.14,0.958h6.281   c0.529,0,0.875-0.429,0.775-0.958C196.049,132.116,195.539,131.688,195.01,131.688z"></path>		<path fill="#775BA6" d="M172.949,139.329c0.528,0,0.875-0.429,0.775-0.958c-0.101-0.529-0.611-0.958-1.14-0.958h-1.916   c-0.529,0-0.875,0.429-0.775,0.958c0.101,0.528,0.612,0.958,1.14,0.958H172.949z"></path>		<path fill="#FEED4D" d="M128.901,139.329h1.915c0.529,0,0.876-0.429,0.775-0.958c-0.101-0.529-0.611-0.958-1.14-0.958h-1.915   c-0.529,0-0.876,0.429-0.775,0.958C127.862,138.899,128.372,139.329,128.901,139.329z"></path>		<path fill="#6889C6" d="M175.639,138.371c0.101,0.528,0.611,0.958,1.14,0.958h9.575c0.528,0,0.875-0.429,0.775-0.958   c-0.101-0.529-0.611-0.958-1.14-0.958h-9.576C175.885,137.413,175.538,137.842,175.639,138.371z"></path>		<path fill="#6889C6" d="M134.646,139.329h9.575c0.529,0,0.876-0.429,0.775-0.958c-0.101-0.529-0.611-0.958-1.14-0.958h-9.575   c-0.529,0-0.876,0.429-0.775,0.958C133.607,138.899,134.118,139.329,134.646,139.329z"></path>		<path fill="#6889C6" d="M196.101,137.413h-6.282c-0.528,0-0.875,0.429-0.774,0.958c0.1,0.528,0.611,0.958,1.14,0.958h6.281   c0.529,0,0.875-0.429,0.775-0.958C197.14,137.842,196.629,137.413,196.101,137.413z"></path>		<path fill="#775BA6" d="M148.052,139.329h19.151c0.529,0,0.876-0.429,0.775-0.958c-0.101-0.529-0.611-0.958-1.14-0.958h-19.151   c-0.529,0-0.876,0.429-0.775,0.958C147.013,138.899,147.523,139.329,148.052,139.329z"></path>		<path fill="#735F9A" d="M197.192,143.139h-6.282c-0.528,0-0.875,0.429-0.774,0.958c0.1,0.529,0.611,0.958,1.139,0.958h6.282   c0.529,0,0.875-0.429,0.775-0.958C198.23,143.568,197.72,143.139,197.192,143.139z"></path>		<path fill="#362656" d="M187.08,143.139h-2.873c-0.528,0-0.875,0.429-0.775,0.958c0.101,0.529,0.611,0.958,1.14,0.958h2.873   c0.528,0,0.875-0.429,0.775-0.958C188.119,143.568,187.609,143.139,187.08,143.139z"></path>		<path fill="#735F9A" d="M181.517,144.097c-0.101-0.529-0.611-0.958-1.139-0.958h-19.152c-0.529,0-0.875,0.429-0.775,0.958   c0.101,0.529,0.611,0.958,1.14,0.958h19.152C181.271,145.055,181.618,144.626,181.517,144.097z"></path>		<path fill="#735F9A" d="M135.555,144.097c0.101,0.529,0.611,0.958,1.14,0.958h21.066c0.528,0,0.875-0.429,0.775-0.958   c-0.101-0.529-0.611-0.958-1.14-0.958H136.33C135.801,143.139,135.454,143.568,135.555,144.097z"></path>		<path fill="#6889C6" d="M132.5,143.139h-2.873c-0.529,0-0.876,0.429-0.775,0.958c0.101,0.529,0.611,0.958,1.14,0.958h2.873   c0.529,0,0.876-0.429,0.775-0.958C133.539,143.568,133.029,143.139,132.5,143.139z"></path>		<path fill="#6889C6" d="M198.282,148.865h-2.451c-0.529,0-0.875,0.429-0.775,0.958c0.101,0.529,0.611,0.957,1.14,0.957h2.451   c0.528,0,0.875-0.428,0.775-0.957C199.321,149.294,198.811,148.865,198.282,148.865z"></path>		<path fill="#6889C6" d="M177.82,149.823c-0.1-0.529-0.611-0.958-1.139-0.958h-1.916c-0.528,0-0.875,0.429-0.775,0.958   c0.101,0.529,0.611,0.957,1.14,0.957h1.916C177.574,150.78,177.921,150.352,177.82,149.823z"></path>		<path fill="#735F9A" d="M170.936,148.865h-19.152c-0.528,0-0.875,0.429-0.774,0.958c0.1,0.529,0.611,0.957,1.14,0.957H171.3   c0.528,0,0.875-0.428,0.774-0.957C171.974,149.294,171.464,148.865,170.936,148.865z"></path>		<path fill="#735F9A" d="M193.141,149.823c-0.101-0.529-0.611-0.958-1.14-0.958h-11.49c-0.529,0-0.876,0.429-0.775,0.958   c0.101,0.529,0.611,0.957,1.14,0.957h11.49C192.895,150.78,193.242,150.352,193.141,149.823z"></path>		<path fill="#775BA6" d="M136.828,150.78h11.491c0.528,0,0.875-0.428,0.775-0.957c-0.101-0.529-0.611-0.958-1.14-0.958h-11.49   c-0.529,0-0.876,0.429-0.775,0.958C135.789,150.352,136.299,150.78,136.828,150.78z"></path>		<path fill="#F06496" d="M131.083,150.78h1.915c0.529,0,0.876-0.428,0.775-0.957c-0.101-0.529-0.611-0.958-1.14-0.958h-1.915   c-0.529,0-0.876,0.429-0.775,0.958C130.043,150.352,130.554,150.78,131.083,150.78z"></path>		<path fill="#FEED4D" d="M132.173,156.506h1.915c0.529,0,0.876-0.429,0.775-0.958c-0.101-0.529-0.612-0.958-1.14-0.958h-1.915   c-0.529,0-0.876,0.429-0.775,0.958C131.134,156.077,131.645,156.506,132.173,156.506z"></path>		<path fill="#362656" d="M137.919,156.506h9.575c0.529,0,0.876-0.429,0.775-0.958s-0.612-0.958-1.14-0.958h-9.575   c-0.529,0-0.876,0.429-0.775,0.958C136.879,156.077,137.39,156.506,137.919,156.506z"></path>		<path fill="#735F9A" d="M189.262,154.591h-9.576c-0.529,0-0.875,0.429-0.775,0.958c0.101,0.529,0.612,0.958,1.14,0.958h9.576   c0.529,0,0.876-0.429,0.775-0.958C190.301,155.02,189.791,154.591,189.262,154.591z"></path>		<path fill="#735F9A" d="M199.373,154.591h-6.281c-0.529,0-0.876,0.429-0.775,0.958c0.101,0.529,0.611,0.958,1.14,0.958h6.281   c0.529,0,0.876-0.429,0.775-0.958C200.412,155.02,199.902,154.591,199.373,154.591z"></path>		<path fill="#6889C6" d="M174.306,156.506h1.915c0.529,0,0.876-0.429,0.775-0.958c-0.101-0.529-0.611-0.958-1.14-0.958h-1.915   c-0.529,0-0.876,0.429-0.775,0.958C173.267,156.077,173.777,156.506,174.306,156.506z"></path>		<path fill="#735F9A" d="M151.325,156.506h19.151c0.529,0,0.876-0.429,0.775-0.958c-0.101-0.529-0.611-0.958-1.14-0.958H150.96   c-0.529,0-0.876,0.429-0.775,0.958C150.285,156.077,150.795,156.506,151.325,156.506z"></path>		<path fill="#735F9A" d="M138.827,161.274c0.101,0.529,0.611,0.958,1.14,0.958h21.066c0.529,0,0.876-0.429,0.775-0.958   c-0.101-0.529-0.611-0.958-1.14-0.958h-21.066C139.074,160.316,138.727,160.745,138.827,161.274z"></path>		<path fill="#F06496" d="M135.771,160.316h-2.873c-0.528,0-0.875,0.429-0.774,0.958c0.101,0.529,0.611,0.958,1.139,0.958h2.873   c0.529,0,0.876-0.429,0.775-0.958C136.811,160.745,136.301,160.316,135.771,160.316z"></path>		<path fill="#735F9A" d="M184.79,161.274c-0.101-0.529-0.611-0.958-1.14-0.958h-19.151c-0.529,0-0.876,0.429-0.775,0.958   c0.101,0.529,0.611,0.958,1.14,0.958h19.151C184.543,162.232,184.891,161.803,184.79,161.274z"></path>		<path fill="#362656" d="M190.717,162.232c0.529,0,0.876-0.429,0.775-0.958c-0.101-0.529-0.611-0.958-1.14-0.958h-2.873   c-0.529,0-0.876,0.429-0.775,0.958c0.101,0.529,0.611,0.958,1.14,0.958H190.717z"></path>		<path fill="#735F9A" d="M200.464,160.316h-6.281c-0.529,0-0.876,0.429-0.775,0.958c0.101,0.529,0.611,0.958,1.14,0.958h6.281   c0.529,0,0.876-0.429,0.775-0.958C201.503,160.745,200.993,160.316,200.464,160.316z"></path>		<path fill="#775BA6" d="M179.178,167c-0.101-0.528-0.611-0.957-1.14-0.957h-1.915c-0.529,0-0.876,0.429-0.775,0.957   c0.101,0.529,0.611,0.958,1.14,0.958h1.915C178.931,167.958,179.278,167.529,179.178,167z"></path>		<path fill="#362656" d="M201.555,166.043h-6.281c-0.529,0-0.876,0.429-0.775,0.957c0.101,0.529,0.611,0.958,1.14,0.958h6.281   c0.529,0,0.876-0.429,0.775-0.958C202.594,166.472,202.083,166.043,201.555,166.043z"></path>		<path fill="#6889C6" d="M153.506,167.958h19.151c0.529,0,0.875-0.429,0.775-0.958c-0.101-0.528-0.612-0.957-1.14-0.957h-19.151   c-0.529,0-0.876,0.429-0.775,0.957C152.467,167.529,152.977,167.958,153.506,167.958z"></path>		<path fill="#735F9A" d="M140.101,167.958h9.575c0.529,0,0.875-0.429,0.775-0.958c-0.1-0.528-0.611-0.957-1.14-0.957h-9.575   c-0.529,0-0.876,0.429-0.775,0.957C139.061,167.529,139.571,167.958,140.101,167.958z"></path>		<path fill="#FEED4D" d="M134.355,167.958h1.915c0.529,0,0.875-0.429,0.775-0.958c-0.101-0.528-0.612-0.957-1.14-0.957h-1.916   c-0.528,0-0.875,0.429-0.774,0.957C133.316,167.529,133.826,167.958,134.355,167.958z"></path>		<path fill="#775BA6" d="M182.232,167.958h9.576c0.529,0,0.876-0.429,0.775-0.958c-0.101-0.528-0.611-0.957-1.14-0.957h-9.576   c-0.529,0-0.876,0.429-0.775,0.957C181.193,167.529,181.704,167.958,182.232,167.958z"></path>		<path fill="#775BA6" d="M152.682,173.684c0.529,0,0.876-0.429,0.775-0.958c-0.101-0.529-0.611-0.958-1.14-0.958h-11.49   c-0.529,0-0.876,0.429-0.775,0.958c0.101,0.529,0.611,0.958,1.14,0.958H152.682z"></path>		<path fill="#775BA6" d="M202.646,171.768h-2.451c-0.529,0-0.876,0.429-0.775,0.958c0.101,0.529,0.611,0.958,1.14,0.958h2.451   c0.529,0,0.876-0.429,0.775-0.958C203.685,172.197,203.174,171.768,202.646,171.768z"></path>		<path fill="#6889C6" d="M179.493,173.684h1.916c0.528,0,0.875-0.429,0.774-0.958c-0.101-0.529-0.611-0.958-1.14-0.958h-1.915   c-0.529,0-0.876,0.429-0.775,0.958C178.454,173.255,178.964,173.684,179.493,173.684z"></path>		<path fill="#735F9A" d="M156.512,173.684h19.151c0.529,0,0.876-0.429,0.775-0.958c-0.101-0.529-0.611-0.958-1.14-0.958h-19.151   c-0.529,0-0.876,0.429-0.775,0.958C155.473,173.255,155.983,173.684,156.512,173.684z"></path>		<path fill="#F06496" d="M135.445,173.684h1.916c0.528,0,0.875-0.429,0.775-0.958c-0.101-0.529-0.611-0.958-1.14-0.958h-1.916   c-0.528,0-0.875,0.429-0.775,0.958C134.406,173.255,134.917,173.684,135.445,173.684z"></path>		<path fill="#735F9A" d="M185.238,173.684h11.491c0.529,0,0.875-0.429,0.775-0.958c-0.1-0.529-0.611-0.958-1.14-0.958h-11.491   c-0.529,0-0.875,0.429-0.775,0.958C184.199,173.255,184.71,173.684,185.238,173.684z"></path>		<path fill="#775BA6" d="M203.736,177.494h-6.281c-0.529,0-0.876,0.429-0.775,0.958c0.101,0.528,0.611,0.957,1.14,0.957h6.281   c0.529,0,0.875-0.429,0.775-0.957C204.775,177.923,204.265,177.494,203.736,177.494z"></path>		<path fill="#6889C6" d="M193.625,177.494h-2.873c-0.529,0-0.876,0.429-0.775,0.958c0.101,0.528,0.611,0.957,1.14,0.957h2.873   c0.528,0,0.875-0.429,0.775-0.957C194.664,177.923,194.153,177.494,193.625,177.494z"></path>		<path fill="#362656" d="M163.941,177.494h-21.066c-0.529,0-0.876,0.429-0.775,0.958c0.101,0.528,0.612,0.957,1.14,0.957h21.066   c0.529,0,0.875-0.429,0.774-0.957C164.979,177.923,164.469,177.494,163.941,177.494z"></path>		<path fill="#735F9A" d="M186.922,177.494h-19.151c-0.529,0-0.876,0.429-0.775,0.958c0.101,0.528,0.611,0.957,1.14,0.957h19.151   c0.528,0,0.875-0.429,0.775-0.957C187.961,177.923,187.45,177.494,186.922,177.494z"></path>		<path fill="#362656" d="M211.337,127.877h19.151c0.529,0,0.876-0.429,0.775-0.957c-0.101-0.529-0.611-0.958-1.14-0.958h-19.151   c-0.529,0-0.875,0.429-0.775,0.958C210.298,127.448,210.809,127.877,211.337,127.877z"></path>		<path fill="#775BA6" d="M234.318,127.877h1.916c0.528,0,0.875-0.429,0.775-0.957c-0.101-0.529-0.611-0.958-1.14-0.958h-1.915   c-0.528,0-0.875,0.429-0.775,0.958C233.279,127.448,233.79,127.877,234.318,127.877z"></path>		<path fill="#735F9A" d="M240.063,127.877h5.615c0.528,0,0.875-0.429,0.774-0.957c-0.101-0.529-0.611-0.958-1.14-0.958h-5.613   c-0.529,0-0.876,0.429-0.775,0.958C239.025,127.448,239.535,127.877,240.063,127.877z"></path>		<path fill="#735F9A" d="M197.932,127.877h9.575c0.529,0,0.876-0.429,0.775-0.957c-0.101-0.529-0.611-0.958-1.14-0.958h-9.575   c-0.529,0-0.875,0.429-0.775,0.958C196.892,127.448,197.403,127.877,197.932,127.877z"></path>		<path fill="#735F9A" d="M220.711,132.645c-0.101-0.529-0.611-0.958-1.14-0.958h-21.066c-0.529,0-0.876,0.429-0.775,0.958   c0.101,0.529,0.611,0.958,1.14,0.958h21.065C220.465,133.603,220.812,133.174,220.711,132.645z"></path>		<path fill="#735F9A" d="M246.403,131.688h-23.002c-0.529,0-0.876,0.429-0.775,0.958c0.101,0.529,0.612,0.958,1.14,0.958h23.002   c0.529,0,0.876-0.429,0.775-0.958C247.443,132.116,246.933,131.688,246.403,131.688z"></path>		<path fill="#775BA6" d="M238.415,139.329c0.529,0,0.876-0.429,0.775-0.958c-0.101-0.529-0.611-0.958-1.14-0.958h-1.915   c-0.529,0-0.876,0.429-0.775,0.958c0.101,0.528,0.611,0.958,1.14,0.958H238.415z"></path>		<path fill="#6889C6" d="M241.105,138.371c0.101,0.528,0.611,0.958,1.14,0.958h5.135c0.529,0,0.876-0.429,0.775-0.958   c-0.1-0.529-0.611-0.958-1.14-0.958h-5.135C241.352,137.413,241.005,137.842,241.105,138.371z"></path>		<path fill="#6889C6" d="M200.113,139.329h9.575c0.529,0,0.876-0.429,0.775-0.958c-0.101-0.529-0.611-0.958-1.14-0.958h-9.575   c-0.529,0-0.876,0.429-0.775,0.958C199.074,138.899,199.584,139.329,200.113,139.329z"></path>		<path fill="#775BA6" d="M213.519,139.329h19.151c0.529,0,0.876-0.429,0.775-0.958c-0.101-0.529-0.611-0.958-1.14-0.958h-19.151   c-0.529,0-0.876,0.429-0.775,0.958C212.479,138.899,212.99,139.329,213.519,139.329z"></path>		<path fill="#735F9A" d="M249.378,144.097c-0.101-0.529-0.611-0.958-1.14-0.958h-21.545c-0.529,0-0.876,0.429-0.775,0.958   c0.101,0.529,0.612,0.958,1.14,0.958h21.545C249.132,145.055,249.479,144.626,249.378,144.097z"></path>		<path fill="#735F9A" d="M201.021,144.097c0.101,0.529,0.611,0.958,1.14,0.958h21.066c0.529,0,0.876-0.429,0.775-0.958   c-0.101-0.529-0.611-0.958-1.14-0.958h-21.066C201.268,143.139,200.921,143.568,201.021,144.097z"></path>		<path fill="#6889C6" d="M243.287,149.823c-0.101-0.529-0.611-0.958-1.14-0.958h-1.915c-0.529,0-0.875,0.429-0.775,0.958   s0.611,0.957,1.14,0.957h1.916C243.041,150.78,243.388,150.352,243.287,149.823z"></path>		<path fill="#735F9A" d="M236.401,148.865H217.25c-0.529,0-0.875,0.429-0.775,0.958c0.101,0.529,0.612,0.957,1.14,0.957h19.151   c0.529,0,0.876-0.428,0.775-0.957C237.441,149.294,236.931,148.865,236.401,148.865z"></path>		<path fill="#735F9A" d="M250.947,149.823c-0.101-0.529-0.611-0.958-1.14-0.958h-3.831c-0.528,0-0.875,0.429-0.775,0.958   c0.101,0.529,0.611,0.957,1.14,0.957h3.83C250.701,150.78,251.048,150.352,250.947,149.823z"></path>		<path fill="#775BA6" d="M202.295,150.78h11.49c0.529,0,0.876-0.428,0.775-0.957c-0.101-0.529-0.611-0.958-1.14-0.958h-11.49   c-0.529,0-0.876,0.429-0.775,0.958C201.255,150.352,201.766,150.78,202.295,150.78z"></path>		<path fill="#362656" d="M203.386,156.506h9.575c0.529,0,0.875-0.429,0.775-0.958c-0.1-0.529-0.611-0.958-1.14-0.958h-9.575   c-0.529,0-0.876,0.429-0.775,0.958C202.346,156.077,202.856,156.506,203.386,156.506z"></path>		<path fill="#735F9A" d="M250.135,154.591h-4.982c-0.529,0-0.876,0.429-0.775,0.958c0.101,0.529,0.611,0.958,1.14,0.958h4.982   c0.529,0,0.876-0.429,0.775-0.958S250.664,154.591,250.135,154.591z"></path>		<path fill="#6889C6" d="M239.772,156.506h1.915c0.529,0,0.876-0.429,0.775-0.958c-0.101-0.529-0.611-0.958-1.14-0.958h-1.916   c-0.528,0-0.875,0.429-0.775,0.958C238.733,156.077,239.244,156.506,239.772,156.506z"></path>		<path fill="#735F9A" d="M216.792,156.506h19.151c0.529,0,0.875-0.429,0.775-0.958c-0.101-0.529-0.612-0.958-1.14-0.958h-19.151   c-0.529,0-0.876,0.429-0.775,0.958C215.752,156.077,216.262,156.506,216.792,156.506z"></path>		<path fill="#735F9A" d="M204.293,161.274c0.101,0.529,0.611,0.958,1.14,0.958H226.5c0.529,0,0.875-0.429,0.775-0.958   c-0.101-0.529-0.611-0.958-1.14-0.958h-21.066C204.54,160.316,204.193,160.745,204.293,161.274z"></path>		<path fill="#735F9A" d="M253.129,161.274c-0.101-0.529-0.611-0.958-1.14-0.958h-22.024c-0.529,0-0.876,0.429-0.775,0.958   c0.101,0.529,0.611,0.958,1.14,0.958h22.023C252.883,162.232,253.23,161.803,253.129,161.274z"></path>		<path fill="#775BA6" d="M244.645,167c-0.101-0.528-0.611-0.957-1.14-0.957h-1.916c-0.528,0-0.875,0.429-0.775,0.957   c0.101,0.529,0.611,0.958,1.14,0.958h1.916C244.398,167.958,244.745,167.529,244.645,167z"></path>		<path fill="#6889C6" d="M218.973,167.958h19.151c0.528,0,0.875-0.429,0.775-0.958c-0.101-0.528-0.611-0.957-1.14-0.957h-19.151   c-0.528,0-0.875,0.429-0.774,0.957C217.934,167.529,218.444,167.958,218.973,167.958z"></path>		<path fill="#735F9A" d="M205.567,167.958h9.575c0.528,0,0.875-0.429,0.775-0.958c-0.101-0.528-0.611-0.957-1.14-0.957h-9.575   c-0.529,0-0.876,0.429-0.775,0.957C204.528,167.529,205.038,167.958,205.567,167.958z"></path>		<path fill="#775BA6" d="M247.699,167.958h5.745c0.529,0,0.876-0.429,0.775-0.958c-0.101-0.528-0.611-0.957-1.14-0.957h-5.745   c-0.529,0-0.876,0.429-0.775,0.957C246.66,167.529,247.17,167.958,247.699,167.958z"></path>		<path fill="#775BA6" d="M218.148,173.684c0.529,0,0.875-0.429,0.775-0.958c-0.101-0.529-0.611-0.958-1.14-0.958h-11.491   c-0.529,0-0.875,0.429-0.774,0.958c0.1,0.529,0.611,0.958,1.139,0.958H218.148z"></path>		<path fill="#6889C6" d="M244.96,173.684h1.915c0.529,0,0.876-0.429,0.775-0.958c-0.101-0.529-0.611-0.958-1.14-0.958h-1.915   c-0.529,0-0.876,0.429-0.775,0.958C243.92,173.255,244.431,173.684,244.96,173.684z"></path>		<path fill="#735F9A" d="M221.979,173.684h19.151c0.529,0,0.876-0.429,0.775-0.958c-0.101-0.529-0.611-0.958-1.14-0.958h-19.151   c-0.529,0-0.876,0.429-0.775,0.958C220.939,173.255,221.45,173.684,221.979,173.684z"></path>		<path fill="#735F9A" d="M250.705,173.684h4.177c0.529,0,0.876-0.429,0.775-0.958c-0.101-0.529-0.611-0.958-1.14-0.958h-4.177   c-0.529,0-0.875,0.429-0.775,0.958C249.666,173.255,250.176,173.684,250.705,173.684z"></path>		<path fill="#6889C6" d="M255.74,177.494h-0.632c-0.528,0-0.875,0.429-0.774,0.958c0.1,0.528,0.611,0.957,1.139,0.957h0.632   c0.529,0,0.876-0.429,0.775-0.957C256.779,177.923,256.269,177.494,255.74,177.494z"></path>		<path fill="#362656" d="M229.407,177.494h-21.066c-0.529,0-0.876,0.429-0.775,0.958c0.101,0.528,0.611,0.957,1.14,0.957h21.066   c0.528,0,0.875-0.429,0.775-0.957C230.446,177.923,229.936,177.494,229.407,177.494z"></path>		<path fill="#735F9A" d="M252.388,177.494h-19.151c-0.529,0-0.875,0.429-0.775,0.958c0.101,0.528,0.611,0.957,1.14,0.957h19.151   c0.529,0,0.876-0.429,0.775-0.957C253.428,177.923,252.917,177.494,252.388,177.494z"></path>		<path fill="#6889C6" d="M139.044,177.494h-2.873c-0.529,0-0.876,0.429-0.775,0.958c0.101,0.528,0.612,0.957,1.14,0.957h2.873   c0.529,0,0.876-0.429,0.775-0.957C140.083,177.923,139.573,177.494,139.044,177.494z"></path>	</g>	<g>		<path fill="#6889C6" d="M137.42,184.049h1.915c0.529,0,0.876-0.429,0.775-0.958c-0.101-0.529-0.611-0.958-1.14-0.958h-1.915   c-0.529,0-0.876,0.429-0.775,0.958S136.892,184.049,137.42,184.049z"></path>		<path fill="#362656" d="M156.571,184.049h19.151c0.529,0,0.876-0.429,0.775-0.958c-0.101-0.529-0.611-0.958-1.14-0.958h-19.151   c-0.529,0-0.875,0.429-0.775,0.958C155.532,183.621,156.042,184.049,156.571,184.049z"></path>		<path fill="#775BA6" d="M179.553,184.049h1.915c0.529,0,0.876-0.429,0.775-0.958c-0.1-0.529-0.611-0.958-1.14-0.958h-1.915   c-0.529,0-0.876,0.429-0.775,0.958S179.023,184.049,179.553,184.049z"></path>		<path fill="#775BA6" d="M198.704,184.049h6.281c0.529,0,0.875-0.429,0.775-0.958s-0.611-0.958-1.14-0.958h-6.281   c-0.528,0-0.876,0.429-0.775,0.958C197.664,183.621,198.175,184.049,198.704,184.049z"></path>		<path fill="#735F9A" d="M185.298,184.049h9.575c0.529,0,0.876-0.429,0.775-0.958c-0.1-0.529-0.611-0.958-1.14-0.958h-9.575   c-0.529,0-0.876,0.429-0.775,0.958C184.258,183.621,184.769,184.049,185.298,184.049z"></path>		<path fill="#735F9A" d="M143.166,184.049h9.576c0.529,0,0.876-0.429,0.775-0.958c-0.101-0.529-0.611-0.958-1.14-0.958h-9.576   c-0.529,0-0.875,0.429-0.775,0.958C142.126,183.621,142.637,184.049,143.166,184.049z"></path>		<path fill="#735F9A" d="M167.055,188.817c-0.101-0.528-0.611-0.958-1.14-0.958h-21.066c-0.529,0-0.876,0.43-0.775,0.958   c0.101,0.529,0.611,0.958,1.14,0.958h21.066C166.809,189.775,167.156,189.346,167.055,188.817z"></path>		<path fill="#F06496" d="M141.019,187.859h-2.873c-0.529,0-0.876,0.43-0.775,0.958c0.101,0.529,0.611,0.958,1.14,0.958h2.873   c0.529,0,0.875-0.429,0.775-0.958C142.058,188.289,141.547,187.859,141.019,187.859z"></path>		<path fill="#735F9A" d="M188.896,187.859h-19.151c-0.529,0-0.876,0.43-0.775,0.958c0.101,0.529,0.611,0.958,1.14,0.958h19.151   c0.528,0,0.875-0.429,0.775-0.958C189.936,188.289,189.425,187.859,188.896,187.859z"></path>		<path fill="#775BA6" d="M195.964,189.775c0.529,0,0.876-0.429,0.775-0.958c-0.101-0.528-0.611-0.958-1.14-0.958h-2.873   c-0.529,0-0.875,0.43-0.775,0.958c0.101,0.529,0.611,0.958,1.14,0.958H195.964z"></path>		<path fill="#735F9A" d="M205.71,187.859h-6.281c-0.529,0-0.876,0.43-0.775,0.958c0.1,0.529,0.611,0.958,1.14,0.958h6.281   c0.528,0,0.875-0.429,0.775-0.958C206.75,188.289,206.239,187.859,205.71,187.859z"></path>		<path fill="#775BA6" d="M183.649,195.501c0.529,0,0.876-0.429,0.775-0.958c-0.101-0.529-0.611-0.958-1.14-0.958h-1.915   c-0.529,0-0.876,0.429-0.775,0.958c0.101,0.529,0.611,0.958,1.14,0.958H183.649z"></path>		<path fill="#FEED4D" d="M139.602,195.501h1.915c0.529,0,0.876-0.429,0.775-0.958c-0.101-0.529-0.611-0.958-1.14-0.958h-1.915   c-0.529,0-0.876,0.429-0.775,0.958C138.563,195.072,139.073,195.501,139.602,195.501z"></path>		<path fill="#6889C6" d="M186.339,194.543c0.101,0.529,0.611,0.958,1.14,0.958h9.575c0.529,0,0.876-0.429,0.775-0.958   c-0.101-0.529-0.611-0.958-1.14-0.958h-9.575C186.585,193.585,186.239,194.014,186.339,194.543z"></path>		<path fill="#6889C6" d="M145.347,195.501h9.576c0.529,0,0.876-0.429,0.775-0.958c-0.101-0.529-0.611-0.958-1.14-0.958h-9.575   c-0.529,0-0.876,0.429-0.775,0.958C144.308,195.072,144.818,195.501,145.347,195.501z"></path>		<path fill="#6889C6" d="M206.801,193.585h-6.281c-0.529,0-0.876,0.429-0.775,0.958c0.101,0.529,0.611,0.958,1.14,0.958h6.281   c0.528,0,0.875-0.429,0.775-0.958C207.841,194.014,207.33,193.585,206.801,193.585z"></path>		<path fill="#775BA6" d="M158.753,195.501h19.151c0.529,0,0.876-0.429,0.775-0.958c-0.101-0.529-0.611-0.958-1.14-0.958h-19.151   c-0.529,0-0.876,0.429-0.775,0.958C157.714,195.072,158.224,195.501,158.753,195.501z"></path>		<path fill="#362656" d="M222.038,184.049h19.151c0.529,0,0.876-0.429,0.775-0.958c-0.101-0.529-0.611-0.958-1.14-0.958h-19.151   c-0.529,0-0.876,0.429-0.775,0.958C220.999,183.621,221.509,184.049,222.038,184.049z"></path>		<path fill="#775BA6" d="M245.02,184.049h1.915c0.529,0,0.876-0.429,0.775-0.958c-0.101-0.529-0.611-0.958-1.14-0.958h-1.915   c-0.529,0-0.876,0.429-0.775,0.958C243.98,183.621,244.49,184.049,245.02,184.049z"></path>		<path fill="#735F9A" d="M250.765,184.049h6.224c0.529,0,0.875-0.429,0.775-0.958c-0.101-0.529-0.612-0.958-1.14-0.958H250.4   c-0.528,0-0.875,0.429-0.775,0.958C249.725,183.621,250.236,184.049,250.765,184.049z"></path>		<path fill="#735F9A" d="M208.632,184.049h9.576c0.529,0,0.876-0.429,0.775-0.958c-0.101-0.529-0.611-0.958-1.14-0.958h-9.576   c-0.529,0-0.876,0.429-0.775,0.958C207.593,183.621,208.104,184.049,208.632,184.049z"></path>		<path fill="#735F9A" d="M231.412,188.817c-0.101-0.528-0.611-0.958-1.14-0.958h-21.066c-0.528,0-0.875,0.43-0.775,0.958   c0.101,0.529,0.611,0.958,1.14,0.958h21.066C231.166,189.775,231.513,189.346,231.412,188.817z"></path>		<path fill="#735F9A" d="M257.583,187.859h-23.481c-0.529,0-0.876,0.43-0.775,0.958c0.101,0.529,0.611,0.958,1.14,0.958h23.481   c0.529,0,0.876-0.429,0.775-0.958C258.622,188.289,258.112,187.859,257.583,187.859z"></path>		<path fill="#775BA6" d="M249.116,195.501c0.529,0,0.876-0.429,0.775-0.958c-0.101-0.529-0.611-0.958-1.14-0.958h-1.915   c-0.529,0-0.876,0.429-0.775,0.958c0.101,0.529,0.611,0.958,1.14,0.958H249.116z"></path>		<path fill="#6889C6" d="M251.806,194.543c0.101,0.529,0.611,0.958,1.14,0.958h6.224c0.529,0,0.876-0.429,0.775-0.958   c-0.101-0.529-0.611-0.958-1.14-0.958h-6.224C252.052,193.585,251.705,194.014,251.806,194.543z"></path>		<path fill="#6889C6" d="M210.814,195.501h9.576c0.529,0,0.875-0.429,0.774-0.958c-0.1-0.529-0.611-0.958-1.139-0.958h-9.576   c-0.529,0-0.876,0.429-0.775,0.958C209.775,195.072,210.285,195.501,210.814,195.501z"></path>		<path fill="#775BA6" d="M224.22,195.501h19.151c0.529,0,0.875-0.429,0.775-0.958c-0.101-0.529-0.611-0.958-1.14-0.958h-19.151   c-0.529,0-0.876,0.429-0.775,0.958C223.181,195.072,223.691,195.501,224.22,195.501z"></path>	</g></g><path fill="#2F4D9E" d="M522.79,270.2H134.289c-1.273,0-2.305-1.031-2.305-2.305l0,0c0-1.273,1.032-2.305,2.305-2.305H522.79 c1.272,0,2.305,1.031,2.305,2.305l0,0C525.095,269.169,524.063,270.2,522.79,270.2z"></path><path fill="#243E90" d="M549.427,266.643H107.651c-1.273,0-2.305-1.032-2.305-2.305v-7.189c0-1.273,1.032-2.306,2.305-2.306h441.776 c1.273,0,2.306,1.032,2.306,2.306v7.189C551.732,265.61,550.7,266.643,549.427,266.643z"></path><path fill="#FBE7D4" d="M366.063,234.067c0,0-9.351-3.086-14.934-4.9c-5.582-1.814-14.515,1.535-20.935,6.28 c0,0-4.465,3.768-2.93,5.024c1.536,1.256,8.932-4.745,15.352-5.443c0,0-14.933,9.491-13.397,12.84 c0.511,1.116,2.371,0.866,4.62,0.041c-0.338,0.614-0.443,1.145-0.128,1.495c0.793,0.88,5.102-0.677,9.012-2.353 c-0.76,0.554-1.259,1.123-1.222,1.655c0.139,2.093,12.142-3.35,12.142-3.35s7.676,5.024,12.979,1.814 C366.622,247.17,368.716,238.409,366.063,234.067z"></path><path fill="#3563AA" d="M360.994,248.845H190.96c-1.399,0-2.534,1.135-2.534,2.534v0.931c0,1.398,1.134,2.533,2.534,2.533h170.034 c1.399,0,2.534-1.135,2.534-2.533v-0.931C363.528,249.98,362.394,248.845,360.994,248.845z"></path><path fill="#3160AA" d="M311.072,161.933l17.39,82.331c0.534,2.528-1.085,4.581-3.602,4.581H190.984 c-2.529,0-5.016-2.053-5.55-4.581l-17.39-82.331c-0.534-2.529,1.088-4.57,3.616-4.57h133.876 C308.054,157.363,310.538,159.404,311.072,161.933z"></path><path fill="#1D4698" d="M306.862,161.933l17.39,82.331c0.534,2.528-1.074,4.581-3.602,4.581H190.984 c-2.529,0-5.016-2.053-5.55-4.581l-17.39-82.331c-0.534-2.529,1.088-4.57,3.616-4.57h129.667 C303.855,157.363,306.328,159.404,306.862,161.933z"></path><path fill="#FFFFFF" d="M241.961,211.679c-4.709,0-8.54-3.831-8.54-8.54c0-4.709,3.831-8.541,8.54-8.541s8.54,3.831,8.54,8.541 C250.501,207.848,246.67,211.679,241.961,211.679z M241.961,198.079c-2.791,0-5.06,2.27-5.06,5.061c0,2.79,2.27,5.06,5.06,5.06 c2.79,0,5.06-2.27,5.06-5.06C247.021,200.349,244.751,198.079,241.961,198.079z"></path><circle fill="#E2ECF8" cx="473.649" cy="63.178" r="8.802"></circle><circle fill="#E2ECF8" cx="486.46" cy="78.537" r="8.802"></circle><circle fill="#E2ECF8" cx="498.833" cy="93.368" r="8.802"></circle></svg>