<svg width="70" height="60" viewBox="0 0 70 60" fill="none" xmlns="http://www.w3.org/2000/svg">
<path d="M65.9407 0H4.29371C3.35505 0.0330653 2.46771 0.436606 1.82586 1.12232C1.18401 1.80803 0.839917 2.72007 0.868878 3.65886V42.0113C0.841454 42.9491 1.18623 43.8597 1.82792 44.5441C2.46961 45.2286 3.35607 45.6313 4.29371 45.6644H29.4091V50.2309H21.4179C21.1151 50.2309 20.8247 50.3511 20.6106 50.5652C20.3965 50.7793 20.2763 51.0697 20.2763 51.3725V57.0805H17.993V59.3637H52.2413V57.0805H49.9581V51.3725C49.9581 51.0697 49.8378 50.7793 49.6238 50.5652C49.4097 50.3511 49.1193 50.2309 48.8165 50.2309H40.8252V45.6644H65.9407C66.8783 45.6313 67.7648 45.2286 68.4065 44.5441C69.0481 43.8597 69.3929 42.9491 69.3655 42.0113V3.65886C69.3945 2.72007 69.0504 1.80803 68.4085 1.12232C67.7667 0.436606 66.8793 0.0330653 65.9407 0ZM4.29371 2.28322H65.9407C66.2731 2.31763 66.5788 2.48093 66.7922 2.73809C67.0056 2.99525 67.1097 3.32581 67.0823 3.65886V36.5315H3.1521V3.65886C3.12464 3.32581 3.22878 2.99525 3.4422 2.73809C3.65561 2.48093 3.9613 2.31763 4.29371 2.28322ZM47.6749 57.0805H22.5595V52.5141H47.6749V57.0805ZM38.542 50.2309H31.6924V45.6644H38.542V50.2309ZM65.9407 43.3812H4.29371C3.96237 43.3468 3.65758 43.1843 3.44432 42.9284C3.23106 42.6725 3.1262 42.3434 3.1521 42.0113V38.8148H67.0823V42.0113C67.1082 42.3434 67.0033 42.6725 66.7901 42.9284C66.5768 43.1843 66.272 43.3468 65.9407 43.3812Z" fill="#CAEF45"/>
<path d="M61.3732 39.9563H63.6565V42.2395H61.3732V39.9563ZM37.3994 22.8322H40.2786C40.3993 23.1712 40.5372 23.5038 40.6918 23.8288L38.6552 25.8654C38.4412 26.0795 38.3209 26.3698 38.3209 26.6725C38.3209 26.9753 38.4412 27.2656 38.6552 27.4797L41.8848 30.7093C42.0989 30.9233 42.3892 31.0435 42.6919 31.0435C42.9946 31.0435 43.285 30.9233 43.499 30.7093L45.5357 28.6738C45.8606 28.8284 46.1933 28.9663 46.5323 29.087V31.965C46.5323 32.2678 46.6526 32.5582 46.8667 32.7723C47.0808 32.9864 47.3711 33.1067 47.6739 33.1067H52.2404C52.5431 33.1067 52.8335 32.9864 53.0476 32.7723C53.2617 32.5582 53.382 32.2678 53.382 31.965V29.0859C53.721 28.9652 54.0536 28.8273 54.3786 28.6726L56.4152 30.7093C56.6293 30.9233 56.9196 31.0435 57.2223 31.0435C57.5251 31.0435 57.8154 30.9233 58.0295 30.7093L61.2591 27.4797C61.4731 27.2656 61.5933 26.9753 61.5933 26.6725C61.5933 26.3698 61.4731 26.0795 61.2591 25.8654L59.2236 23.8288C59.3778 23.5038 59.5154 23.1712 59.6357 22.8322H62.5148C62.8176 22.8322 63.108 22.7119 63.3221 22.4978C63.5362 22.2837 63.6565 21.9933 63.6565 21.6906V17.1241C63.6565 16.8213 63.5362 16.531 63.3221 16.3169C63.108 16.1028 62.8176 15.9825 62.5148 15.9825H59.6357C59.515 15.6435 59.3771 15.3108 59.2224 14.9859L61.2591 12.9492C61.4731 12.7352 61.5933 12.4448 61.5933 12.1421C61.5933 11.8394 61.4731 11.5491 61.2591 11.335L58.0295 8.10539C57.8154 7.89137 57.5251 7.77114 57.2223 7.77114C56.9196 7.77114 56.6293 7.89137 56.4152 8.10539L54.3786 10.1409C54.0536 9.98665 53.721 9.8491 53.382 9.72876V6.84962C53.382 6.54684 53.2617 6.25647 53.0476 6.04238C52.8335 5.82828 52.5431 5.70801 52.2404 5.70801H47.6739C47.3711 5.70801 47.0808 5.82828 46.8667 6.04238C46.6526 6.25647 46.5323 6.54684 46.5323 6.84962V9.72876C46.1933 9.84947 45.8606 9.9874 45.5357 10.142L43.499 8.10539C43.285 7.89137 42.9946 7.77114 42.6919 7.77114C42.3892 7.77114 42.0989 7.89137 41.8848 8.10539L38.6552 11.335C38.4412 11.5491 38.3209 11.8394 38.3209 12.1421C38.3209 12.4448 38.4412 12.7352 38.6552 12.9492L40.6907 14.9859C40.5361 15.3108 40.3981 15.6435 40.2774 15.9825H37.3994C37.0966 15.9825 36.8063 16.1028 36.5922 16.3169C36.3781 16.531 36.2578 16.8213 36.2578 17.1241V21.6906C36.2578 21.9933 36.3781 22.2837 36.5922 22.4978C36.8063 22.7119 37.0966 22.8322 37.3994 22.8322ZM38.541 18.2657H41.1234C41.3764 18.2657 41.6223 18.1815 41.8223 18.0265C42.0223 17.8716 42.1652 17.6545 42.2284 17.4095C42.4148 16.6883 42.701 15.9966 43.0789 15.3546C43.2078 15.1365 43.2605 14.8817 43.2286 14.6304C43.1968 14.3791 43.0823 14.1455 42.9031 13.9664L41.0766 12.1398L42.6908 10.5256L44.5174 12.3522C44.6965 12.5314 44.93 12.6459 45.1814 12.6777C45.4327 12.7095 45.6875 12.6569 45.9056 12.528C46.5475 12.1501 47.2392 11.8638 47.9605 11.6775C48.2055 11.6142 48.4225 11.4714 48.5775 11.2713C48.7325 11.0713 48.8166 10.8255 48.8167 10.5724V7.99123H51.0999V10.5736C51.0999 10.8266 51.1841 11.0724 51.3391 11.2725C51.494 11.4725 51.7111 11.6154 51.9561 11.6786C52.6774 11.865 53.369 12.1512 54.011 12.5291C54.2291 12.658 54.4839 12.7107 54.7352 12.6788C54.9865 12.647 55.2201 12.5325 55.3992 12.3533L57.2258 10.5267L58.84 12.141L57.0134 13.9676C56.8343 14.1466 56.7197 14.3802 56.6879 14.6316C56.6561 14.8829 56.7087 15.1377 56.8376 15.3558C57.2155 15.9977 57.5018 16.6894 57.6881 17.4107C57.7514 17.6557 57.8943 17.8727 58.0943 18.0277C58.2943 18.1827 58.5402 18.2668 58.7932 18.2669H61.3732V20.5501H58.7909C58.5379 20.5501 58.292 20.6343 58.092 20.7893C57.892 20.9442 57.7491 21.1613 57.6858 21.4063C57.4995 22.1276 57.2132 22.8192 56.8353 23.4612C56.7065 23.6793 56.6538 23.9341 56.6856 24.1854C56.7175 24.4367 56.832 24.6703 57.0111 24.8494L58.8377 26.676L57.2235 28.2902L55.3969 26.4636C55.2178 26.2845 54.9842 26.1699 54.7329 26.1381C54.4816 26.1063 54.2268 26.1589 54.0087 26.2878C53.3667 26.6657 52.6751 26.952 51.9538 27.1383C51.7088 27.2016 51.4918 27.3444 51.3368 27.5445C51.1818 27.7445 51.0977 27.9904 51.0976 28.2434V30.8234H48.8155V28.2411C48.8155 27.9881 48.7313 27.7422 48.5764 27.5422C48.4214 27.3422 48.2043 27.1993 47.9593 27.136C47.2381 26.9497 46.5464 26.6634 45.9044 26.2855C45.6863 26.1567 45.4315 26.104 45.1802 26.1358C44.9289 26.1676 44.6953 26.2822 44.5162 26.4613L42.6896 28.2879L41.0754 26.6737L42.902 24.8471C43.0812 24.668 43.1957 24.4344 43.2275 24.1831C43.2593 23.9318 43.2067 23.677 43.0778 23.4589C42.6999 22.8169 42.4136 22.1253 42.2273 21.404C42.164 21.159 42.0212 20.942 41.8211 20.787C41.6211 20.632 41.3753 20.5479 41.1222 20.5478H38.541V18.2657Z" fill="#CAEF45"/>
<path d="M49.9552 25.1154C51.0841 25.1154 52.1877 24.7806 53.1264 24.1534C54.0651 23.5262 54.7967 22.6347 55.2287 21.5917C55.6607 20.5487 55.7738 19.401 55.5535 18.2937C55.3333 17.1865 54.7897 16.1694 53.9914 15.3711C53.1931 14.5728 52.176 14.0292 51.0688 13.8089C49.9615 13.5887 48.8138 13.7017 47.7708 14.1338C46.7278 14.5658 45.8363 15.2974 45.2091 16.2361C44.5819 17.1748 44.2471 18.2784 44.2471 19.4073C44.2489 20.9206 44.8509 22.3714 45.921 23.4415C46.991 24.5116 48.4419 25.1136 49.9552 25.1154ZM49.9552 15.9825C50.6325 15.9825 51.2947 16.1833 51.8579 16.5597C52.4211 16.936 52.8601 17.4709 53.1193 18.0967C53.3785 18.7225 53.4463 19.4111 53.3142 20.0755C53.182 20.7398 52.8559 21.3501 52.3769 21.829C51.8979 22.308 51.2877 22.6342 50.6233 22.7663C49.959 22.8985 49.2704 22.8307 48.6445 22.5714C48.0187 22.3122 47.4839 21.8733 47.1075 21.31C46.7312 20.7468 46.5303 20.0847 46.5303 19.4073C46.5303 18.499 46.8912 17.6279 47.5335 16.9856C48.1757 16.3433 49.0468 15.9825 49.9552 15.9825ZM9.19169 12.2232L10.8059 10.6089L9.32982 9.13282L10.8059 7.65672L9.19169 6.04248L6.90847 8.3257C6.69445 8.53978 6.57422 8.83011 6.57422 9.13282C6.57422 9.43553 6.69445 9.72585 6.90847 9.93994L9.19169 12.2232ZM12.5103 10.7311L15.9352 6.16463L17.7618 7.53457L14.3369 12.101L12.5103 10.7311ZM21.0804 12.2232L23.3636 9.93994C23.5777 9.72585 23.6979 9.43553 23.6979 9.13282C23.6979 8.83011 23.5777 8.53978 23.3636 8.3257L21.0804 6.04248L19.4662 7.65672L20.9423 9.13282L19.4662 10.6089L21.0804 12.2232ZM25.9814 10.2744H28.2646V12.5577H25.9814V10.2744ZM8.8572 14.8409H13.4236V17.1241H8.8572V14.8409ZM15.7069 14.8409H17.9901V17.1241H15.7069V14.8409ZM20.2733 14.8409H27.123V17.1241H20.2733V14.8409ZM29.4062 14.8409H31.6894V17.1241H29.4062V14.8409ZM11.1404 19.4073H13.4236V21.6905H11.1404V19.4073ZM15.7069 19.4073H20.2733V21.6905H15.7069V19.4073ZM22.5565 19.4073H24.8397V21.6905H22.5565V19.4073ZM27.123 19.4073H31.6894V21.6905H27.123V19.4073ZM8.8572 26.257H13.4236V28.5402H8.8572V26.257ZM15.7069 26.257H17.9901V28.5402H15.7069V26.257ZM20.2733 26.257H27.123V28.5402H20.2733V26.257ZM29.4062 26.257H31.6894V28.5402H29.4062V26.257ZM11.1404 30.8234H13.4236V33.1066H11.1404V30.8234ZM15.7069 30.8234H20.2733V33.1066H15.7069V30.8234ZM22.5565 30.8234H24.8397V33.1066H22.5565V30.8234ZM27.123 30.8234H31.6894V33.1066H27.123V30.8234Z" fill="#CAEF45"/>
</svg>
