<svg width="60" height="65" viewBox="0 0 60 65" fill="none" xmlns="http://www.w3.org/2000/svg">
<path d="M43.9662 34.9095C50.1801 24.4346 42.3121 11.4939 30.0388 11.4939C17.7464 11.4939 9.85753 24.3922 16.1754 35.0087C16.2122 35.0589 19.8609 40.1542 21.5947 43.541C22.0441 44.4217 22.2811 45.4135 22.2783 46.4093C22.2783 46.4093 22.2787 46.4101 22.2787 46.4106C22.2787 46.4106 22.2783 46.4115 22.2783 46.412V55.1254C22.2783 56.8059 23.3454 58.2455 24.8552 58.8481V60.9375C24.8552 63.1777 26.7319 65 29.0391 65H31.0317C33.3388 65 35.2156 63.1777 35.2156 60.9375V58.8484C36.726 58.2459 37.7938 56.8061 37.7938 55.1254V46.412C37.7938 46.3901 37.7822 46.372 37.7808 46.3501C37.7832 45.4084 37.9987 44.5034 38.4244 43.66C40.1309 40.2759 43.8654 35.0602 43.9662 34.9095ZM18.5275 33.5566C13.4213 24.9603 19.8016 14.2022 30.0388 14.2022C40.2573 14.2022 46.616 24.983 41.6141 33.4588C41.4561 33.6796 37.7202 38.8966 35.9184 42.4698C35.505 43.2895 35.2408 44.1537 35.1039 45.0578H24.9532C24.8096 44.1122 24.5273 43.1879 24.0925 42.3362C22.2675 38.7696 18.6174 33.6743 18.5275 33.5566ZM35.0045 55.1254C35.0045 55.8528 34.3943 56.4439 33.6452 56.4439H26.4255C25.6764 56.4439 25.0676 55.8528 25.0676 55.1254V53.4592H30.0361C30.8069 53.4592 31.4307 52.8535 31.4307 52.105C31.4307 51.3565 30.8069 50.7508 30.0361 50.7508H25.0676V47.7661H35.0045V55.1254ZM32.4263 60.9375C32.4263 61.6847 31.8012 62.2917 31.0317 62.2917H29.0391C28.2696 62.2917 27.6445 61.6847 27.6445 60.9375V59.1522H32.4263V60.9375ZM30.0361 7.08029C30.8069 7.08029 31.4307 6.47329 31.4307 5.72546L31.4293 1.3535C31.4293 0.605664 30.8042 0 30.0347 0C29.2638 0 28.64 0.606991 28.64 1.35483L28.6414 5.72678C28.6414 6.47462 29.2666 7.08029 30.0361 7.08029ZM47.6625 13.5126L50.8454 10.4194C51.3902 9.88979 51.3902 9.03284 50.8454 8.50388C50.3006 7.97623 49.4181 7.97557 48.8733 8.50454L45.6904 11.5977C45.1456 12.1273 45.1456 12.9843 45.6904 13.5132C46.2356 14.0413 47.1177 14.0416 47.6625 13.5126ZM53.4699 27.4536C52.699 27.4536 52.0753 28.0606 52.0753 28.8078C52.0753 29.5563 52.7004 30.162 53.4699 30.162L57.9725 30.1606C58.7434 30.1606 59.3672 29.5536 59.3672 28.8065C59.3672 28.058 58.7421 27.4523 57.9725 27.4523L53.4699 27.4536ZM6.2631 27.1243L1.76047 27.127C0.990956 27.127 0.367188 27.734 0.367188 28.4825C0.367188 29.2296 0.992323 29.8353 1.76183 29.8353L6.26584 29.8327C7.03534 29.8327 7.65911 29.2257 7.65911 28.4772C7.65911 27.73 7.03261 27.1243 6.2631 27.1243C6.26446 27.1243 6.26309 27.1243 6.2631 27.1243ZM14.2837 11.3636L11.098 8.27378C10.5533 7.74613 9.66799 7.7448 9.12593 8.27511C8.58114 8.80409 8.58114 9.66168 9.12593 10.19L12.3116 13.2798C12.8595 13.8106 13.7448 13.8056 14.2837 13.2785C14.8285 12.7495 14.8285 11.8919 14.2837 11.3636Z" fill="#CAEF45"/>
</svg>
