<svg width="40" height="65" viewBox="0 0 40 65" fill="none" xmlns="http://www.w3.org/2000/svg">
<mask id="path-1-inside-1_1628_2202" fill="white">
<path d="M39.8148 19.4293C39.8148 8.71626 31.0905 0 20.3653 0C9.64615 0 0.925833 8.71626 0.925833 19.4293C0.914988 24.1387 2.62092 28.6906 5.72426 32.2329C8.82761 35.7752 13.1156 38.065 17.7855 38.6737V42.3859C17.2677 42.4421 16.7887 42.6872 16.4402 43.0743C16.0917 43.4614 15.8981 43.9633 15.8964 44.4842L15.866 60.5314C15.866 61.7152 16.3362 62.8506 17.1734 63.6877C18.0105 64.5248 19.1458 64.9951 20.3297 64.9951C21.5136 64.9951 22.6489 64.5248 23.4861 63.6877C24.3232 62.8506 24.7935 61.7152 24.7935 60.5314C24.7935 47.3483 24.8239 44.5177 24.8239 44.4913V44.4852C24.8235 43.969 24.6343 43.4708 24.2919 43.0845C23.9496 42.6981 23.4777 42.4504 22.9653 42.3879V38.6605C32.6007 37.3594 39.8148 29.1805 39.8148 19.4293ZM1.94148 19.4293C1.94148 9.27588 10.2068 1.01564 20.3653 1.01564C30.5298 1.01564 38.7992 9.27588 38.7992 19.4293C38.7992 29.6385 30.5095 37.8155 20.4191 37.8419C17.9937 37.857 15.5894 37.3916 13.3449 36.4724C11.1004 35.5532 9.06029 34.1984 7.3423 32.4864C5.6243 30.7743 4.26249 28.7389 3.33551 26.4976C2.40852 24.2564 1.93472 21.8547 1.94148 19.4293ZM21.9497 38.7905V42.3625H18.8012V38.7956C18.9027 38.8037 19.826 38.8585 20.3653 38.8585H20.3846C20.4181 38.8575 20.4516 38.8545 20.4861 38.8545C21.0173 38.8514 21.8471 38.7996 21.9497 38.7905ZM23.8083 44.4822C23.8083 44.5939 23.7778 47.5342 23.7778 60.5314C23.778 60.9845 23.6887 61.4331 23.5151 61.8516C23.3415 62.2701 23.087 62.6503 22.7662 62.9702C22.4453 63.2902 22.0645 63.5437 21.6456 63.7161C21.2266 63.8886 20.7777 63.9767 20.3246 63.9754C19.4118 63.9743 18.5367 63.6112 17.8912 62.9658C17.2458 62.3203 16.8827 61.4452 16.8816 60.5324L16.9121 44.4852C16.9121 43.8758 17.4087 43.3782 18.0191 43.3782H22.7114C23.3157 43.3782 23.8073 43.8728 23.8083 44.4822Z"/>
</mask>
<path d="M0.925833 19.4293L26.3169 19.4877L26.3169 19.4585V19.4293H0.925833ZM17.7855 38.6737H43.1766V16.3773L21.0672 13.4956L17.7855 38.6737ZM17.7855 42.3859L20.5254 67.6287L43.1766 65.1701V42.3859H17.7855ZM15.8964 44.4842L-9.49454 44.4011L-9.49459 44.4185L-9.49463 44.436L15.8964 44.4842ZM15.866 60.5314L-9.5251 60.4832L-9.52514 60.5073V60.5314H15.866ZM17.1734 63.6877L35.1276 45.7335L17.1734 63.6877ZM23.4861 63.6877L5.53185 45.7335L23.4861 63.6877ZM24.8239 44.4852H50.215V44.4749L50.215 44.4646L24.8239 44.4852ZM22.9653 42.3879H-2.42579V64.871L19.892 67.5923L22.9653 42.3879ZM22.9653 38.6605L19.5677 13.4977L-2.42579 16.4674V38.6605H22.9653ZM1.94148 19.4293L27.3325 19.5L27.3326 19.4646V19.4293H1.94148ZM20.4191 37.8419L20.3526 12.4509L20.3065 12.451L20.2603 12.4513L20.4191 37.8419ZM21.9497 38.7905H47.3408V11.0362L19.696 13.4996L21.9497 38.7905ZM21.9497 42.3625V67.7536H47.3408V42.3625H21.9497ZM18.8012 42.3625H-6.58993V67.7536H18.8012V42.3625ZM18.8012 38.7956L20.826 13.4853L-6.58993 11.2921V38.7956H18.8012ZM20.3846 38.8585V64.2496H20.7692L21.1536 64.238L20.3846 38.8585ZM20.4861 38.8545V64.2456H20.5589L20.6318 64.2452L20.4861 38.8545ZM23.8083 44.4822H49.1994V44.461L49.1994 44.4398L23.8083 44.4822ZM23.7778 60.5314H-1.61328L-1.61327 60.539L23.7778 60.5314ZM20.3246 63.9754L20.3995 38.5844L20.377 38.5844L20.3545 38.5843L20.3246 63.9754ZM16.8816 60.5324L-8.50945 60.4842L-8.50953 60.5232L-8.50948 60.5623L16.8816 60.5324ZM16.9121 44.4852L42.3031 44.5334L42.3032 44.5093V44.4852H16.9121ZM65.2059 19.4293C65.2059 -5.33103 45.0894 -25.3911 20.3653 -25.3911V25.3911C17.0915 25.3911 14.4237 22.7635 14.4237 19.4293H65.2059ZM20.3653 -25.3911C-4.36487 -25.3911 -24.4653 -5.31895 -24.4653 19.4293H26.3169C26.3169 22.7515 23.6572 25.3911 20.3653 25.3911V-25.3911ZM-24.4652 19.3708C-24.4903 30.256 -20.5472 40.7772 -13.3742 48.9647L24.8228 15.501C25.7891 16.604 26.3202 18.0213 26.3169 19.4877L-24.4652 19.3708ZM-13.3742 48.9647C-6.20126 57.1523 3.70989 62.4449 14.5038 63.8518L21.0672 13.4956C22.5213 13.6851 23.8565 14.3981 24.8228 15.501L-13.3742 48.9647ZM-7.60557 38.6737V42.3859H43.1766V38.6737H-7.60557ZM15.0456 17.143C8.31879 17.8732 2.09709 21.0569 -2.43008 26.0855L35.3106 60.063C31.4804 64.3174 26.2166 67.011 20.5254 67.6287L15.0456 17.143ZM-2.43008 26.0855C-6.95729 31.1141 -9.47239 37.6348 -9.49454 44.4011L41.2874 44.5673C41.2686 50.2918 39.1408 55.8086 35.3106 60.063L-2.43008 26.0855ZM-9.49463 44.436L-9.5251 60.4832L41.257 60.5796L41.2875 44.5324L-9.49463 44.436ZM-9.52514 60.5314C-9.52514 68.4494 -6.37971 76.0431 -0.780858 81.6419L35.1276 45.7335C39.0522 49.6581 41.2571 54.9811 41.2571 60.5314H-9.52514ZM-0.780858 81.6419C4.81797 87.2408 12.4116 90.3862 20.3297 90.3862V39.604C25.88 39.604 31.203 41.8089 35.1276 45.7335L-0.780858 81.6419ZM20.3297 90.3862C28.2478 90.3862 35.8414 87.2408 41.4403 81.6419L5.53185 45.7335C9.45644 41.8089 14.7794 39.604 20.3297 39.604V90.3862ZM41.4403 81.6419C47.0391 76.0431 50.1846 68.4494 50.1846 60.5314H-0.597632C-0.597632 54.9811 1.60722 49.6581 5.53185 45.7335L41.4403 81.6419ZM50.1846 60.5314C50.1846 53.9574 50.1922 49.9828 50.1997 47.6596C50.2034 46.4985 50.2071 45.7543 50.2098 45.3075C50.2112 45.0806 50.215 44.58 50.215 44.4913H-0.567163C-0.567163 44.4158 -0.567117 44.2789 -0.571465 45.0022C-0.574491 45.5055 -0.578397 46.2978 -0.582265 47.4956C-0.589997 49.89 -0.597632 53.9223 -0.597632 60.5314H50.1846ZM50.215 44.4913V44.4852H-0.567163V44.4913H50.215ZM50.215 44.4646C50.2096 37.7501 47.7482 31.2694 43.2948 26.2441L5.28902 59.9248C1.52035 55.6722 -0.562534 50.1879 -0.567155 44.5059L50.215 44.4646ZM43.2948 26.2441C38.8414 21.2188 32.7037 17.9962 26.0386 17.1835L19.892 67.5923C14.2517 66.9046 9.05768 64.1774 5.28902 59.9248L43.2948 26.2441ZM48.3564 42.3879V38.6605H-2.42579V42.3879H48.3564ZM26.363 63.8232C48.4966 60.8346 65.2059 41.9886 65.2059 19.4293H14.4237C14.4237 16.3724 16.7048 13.8843 19.5677 13.4977L26.363 63.8232ZM27.3326 19.4293C27.3326 23.3127 24.2162 26.4067 20.3653 26.4067V-24.3755C-3.80266 -24.3755 -23.4496 -4.7609 -23.4496 19.4293H27.3326ZM20.3653 26.4067C16.5331 26.4067 13.4081 23.3254 13.4081 19.4293H64.1903C64.1903 -4.77365 44.5265 -24.3755 20.3653 -24.3755V26.4067ZM13.4081 19.4293C13.4081 15.5069 16.5807 12.4607 20.3526 12.4509L20.4855 63.2329C44.4383 63.1702 64.1903 43.7701 64.1903 19.4293H13.4081ZM20.2603 12.4513C21.1886 12.4455 22.1088 12.6236 22.9679 12.9754L3.72193 59.9693C9.06993 62.1595 14.7989 63.2686 20.5779 63.2325L20.2603 12.4513ZM22.9679 12.9754C23.8269 13.3273 24.6078 13.8458 25.2653 14.5011L-10.5808 50.4717C-6.48721 54.5511 -1.62607 57.7791 3.72193 59.9693L22.9679 12.9754ZM25.2653 14.5011C25.9229 15.1563 26.4441 15.9354 26.7989 16.7932L-20.1279 36.2021C-17.9191 41.5424 -14.6743 46.3923 -10.5808 50.4717L25.2653 14.5011ZM26.7989 16.7932C27.1532 17.6497 27.3351 18.5703 27.3325 19.5L-23.4495 19.3586C-23.4656 25.1391 -22.3361 30.863 -20.1279 36.2021L26.7989 16.7932ZM-3.44143 38.7905V42.3625H47.3408V38.7905H-3.44143ZM21.9497 16.9714H18.8012V67.7536H21.9497V16.9714ZM44.1923 42.3625V38.7956H-6.58993V42.3625H44.1923ZM16.7764 64.1058C17.2778 64.1459 18.9223 64.2496 20.3653 64.2496V13.4674C20.504 13.4674 20.6024 13.4691 20.6467 13.47C20.695 13.4709 20.7217 13.4718 20.723 13.4718C20.7257 13.4719 20.7168 13.4716 20.6959 13.4708C20.6755 13.47 20.65 13.4688 20.6204 13.4674C20.5584 13.4645 20.5025 13.4615 20.4706 13.4596C20.4544 13.4587 20.4569 13.4588 20.4776 13.4601C20.4874 13.4607 20.5137 13.4624 20.5519 13.465C20.5713 13.4663 20.6017 13.4684 20.6399 13.4712C20.6733 13.4736 20.7402 13.4785 20.826 13.4853L16.7764 64.1058ZM20.3653 64.2496H20.3846V13.4674H20.3653V64.2496ZM21.1536 64.238C21.4086 64.2303 21.6105 64.2203 21.7034 64.2156C21.7507 64.2132 21.7892 64.2111 21.7962 64.2107C21.8145 64.2097 21.7904 64.211 21.7687 64.2122C21.7205 64.2147 21.5625 64.223 21.3576 64.2302C21.1466 64.2377 20.8468 64.2456 20.4861 64.2456V13.4634C20.1082 13.4634 19.7912 13.4717 19.5632 13.4797C19.3413 13.4876 19.1663 13.4967 19.1012 13.5001C19.0711 13.5017 19.0386 13.5034 19.0484 13.5029C19.0488 13.5029 19.0566 13.5025 19.0671 13.5019C19.078 13.5013 19.095 13.5004 19.116 13.4994C19.1921 13.4955 19.3773 13.4863 19.6155 13.4791L21.1536 64.238ZM20.6318 64.2452C21.969 64.2375 23.5097 64.1432 24.2033 64.0814L19.696 13.4996C19.7968 13.4906 19.8766 13.4841 19.9208 13.4806C19.9695 13.4767 20.0091 13.4737 20.0357 13.4718C20.0881 13.4679 20.1264 13.4652 20.1444 13.464C20.1815 13.4614 20.1982 13.4604 20.192 13.4608C20.181 13.4615 20.1445 13.4636 20.0983 13.466C20.0498 13.4684 20.0259 13.4693 20.0307 13.4691C20.035 13.469 20.06 13.4681 20.1031 13.4671C20.1435 13.4661 20.2257 13.4645 20.3405 13.4638L20.6318 64.2452ZM-1.58281 44.4822C-1.58281 44.4234 -1.58312 44.3661 -1.58714 45.0626C-1.59014 45.5819 -1.59404 46.3881 -1.59791 47.5932C-1.60564 50.0018 -1.61328 54.0146 -1.61328 60.5314H49.1689C49.1689 54.0509 49.1765 50.095 49.184 47.7562C49.1907 45.6803 49.1994 44.5228 49.1994 44.4822H-1.58281ZM-1.61327 60.539C-1.61414 57.6508 -1.04495 54.7907 0.0617343 52.1228L46.9684 71.5804C48.4223 68.0755 49.1701 64.3181 49.1689 60.5238L-1.61327 60.539ZM0.0617343 52.1228C1.16843 49.4549 2.7908 47.0317 4.83575 44.9922L40.6966 80.9482C43.3831 78.2688 45.5145 75.0853 46.9684 71.5804L0.0617343 52.1228ZM4.83575 44.9922C6.88074 42.9526 9.30821 41.3367 11.979 40.2371L31.3122 87.1952C34.8209 85.7506 38.01 83.6277 40.6966 80.9482L4.83575 44.9922ZM11.979 40.2371C14.6496 39.1376 17.5111 38.5759 20.3995 38.5844L20.2497 89.3664C24.0443 89.3776 27.8036 88.6397 31.3122 87.1952L11.979 40.2371ZM20.3545 38.5843C26.1655 38.5912 31.7365 40.9026 35.8454 45.0116L-0.0629895 80.92C5.33688 86.3199 12.6581 89.3575 20.2947 89.3665L20.3545 38.5843ZM35.8454 45.0116C39.9544 49.1205 42.2658 54.6915 42.2727 60.5025L-8.50948 60.5623C-8.50049 68.1989 -5.46289 75.5201 -0.0629895 80.92L35.8454 45.0116ZM42.2727 60.5806L42.3031 44.5334L-8.47898 44.437L-8.50945 60.4842L42.2727 60.5806ZM42.3032 44.4852C42.3032 57.8838 31.447 68.7692 18.0191 68.7692V17.9871C3.37048 17.9871 -8.47903 29.8678 -8.47903 44.4852H42.3032ZM18.0191 68.7692H22.7114V17.9871H18.0191V68.7692ZM22.7114 68.7692C9.11719 68.7692 -1.56076 57.729 -1.58277 44.5245L49.1994 44.4398C49.1753 30.0166 37.5142 17.9871 22.7114 17.9871V68.7692Z" fill="#CAEF45" mask="url(#path-1-inside-1_1628_2202)"/>
<mask id="path-3-inside-2_1628_2202" fill="white">
<path d="M20.3603 35.0938C28.9059 35.0938 36.0459 28.1448 36.0459 19.4275C36.0459 10.7885 29.0298 3.76123 20.3786 3.76123H20.3603C11.7273 3.76123 4.70312 10.7844 4.70312 19.4174C4.70312 19.8338 4.71125 20.3264 4.76406 20.8129C5.11263 24.7101 6.90604 28.3362 9.79191 30.9785C12.6778 33.6208 16.4475 35.0894 20.3603 35.0938ZM5.77361 20.7123C5.73228 20.282 5.71397 19.8497 5.71877 19.4174C5.71877 11.345 12.2869 4.77687 20.3603 4.77687H20.3786C28.457 4.77687 35.0303 11.3379 35.0303 19.4275C35.0303 27.6482 28.2783 34.0782 20.3603 34.0782C13.0212 34.0782 6.49574 28.547 5.77361 20.7123Z"/>
</mask>
<path d="M20.3603 35.0938L20.3313 60.4849L20.3458 60.4849H20.3603V35.0938ZM4.76406 20.8129L30.0542 18.551L30.0328 18.3115L30.0069 18.0725L4.76406 20.8129ZM5.77361 20.7123L31.0575 18.3819L31.0531 18.3334L31.0484 18.2849L5.77361 20.7123ZM5.71877 19.4174L31.1083 19.699L31.1099 19.5582V19.4174H5.71877ZM20.3603 60.4849C42.707 60.4849 61.437 42.3889 61.437 19.4275H10.6548C10.6548 13.9007 15.1048 9.70275 20.3603 9.70275V60.4849ZM61.437 19.4275C61.437 -3.22394 43.0637 -21.6299 20.3786 -21.6299V29.1523C14.996 29.1523 10.6548 24.8009 10.6548 19.4275H61.437ZM20.3786 -21.6299H20.3603V29.1523H20.3786V-21.6299ZM20.3603 -21.6299C-2.29365 -21.6299 -20.688 -3.24086 -20.688 19.4174H30.0942C30.0942 24.8097 25.7483 29.1523 20.3603 29.1523V-21.6299ZM-20.688 19.4174C-20.688 20.0598 -20.684 21.662 -20.4787 23.5532L30.0069 18.0725C30.0623 18.5834 30.0808 18.9659 30.0879 19.1607C30.0952 19.3586 30.0942 19.4729 30.0942 19.4174H-20.688ZM-20.5261 23.0748C-19.613 33.2844 -14.9148 42.7835 -7.35465 49.7055L26.9385 12.2514C28.7268 13.8888 29.8382 16.1359 30.0542 18.551L-20.5261 23.0748ZM-7.35465 49.7055C0.202167 56.6246 10.0764 60.4732 20.3313 60.4849L20.3893 9.70276C22.8185 9.70554 25.1534 10.617 26.9385 12.2514L-7.35465 49.7055ZM31.0484 18.2849C31.0936 18.7549 31.1135 19.227 31.1083 19.699L-19.6708 19.1357C-19.6856 20.4724 -19.629 21.809 -19.5012 23.1398L31.0484 18.2849ZM31.1099 19.4174C31.1099 25.3693 26.3089 30.168 20.3603 30.168V-20.6142C-1.73503 -20.6142 -19.6723 -2.67922 -19.6723 19.4174H31.1099ZM20.3603 30.168H20.3786V-20.6142H20.3603V30.168ZM20.3786 30.168C14.4488 30.168 9.63916 25.376 9.63916 19.4275H60.4214C60.4214 -2.70008 42.4652 -20.6142 20.3786 -20.6142V30.168ZM9.63916 19.4275C9.63916 13.2422 14.6411 8.6871 20.3603 8.6871V59.4693C41.9154 59.4693 60.4214 42.0541 60.4214 19.4275H9.63916ZM20.3603 8.6871C25.7106 8.6871 30.5363 12.7272 31.0575 18.3819L-19.5103 23.0427C-17.5449 44.3668 0.331857 59.4693 20.3603 59.4693V8.6871Z" fill="#CAEF45" mask="url(#path-3-inside-2_1628_2202)"/>
<path d="M25.1832 9.26786C26.3512 10.0179 27.4071 10.9295 28.3195 11.9756C28.4102 12.0695 28.5334 12.125 28.6639 12.1306C28.7943 12.1362 28.9218 12.0914 29.0202 12.0056C29.1185 11.9197 29.1801 11.7994 29.1923 11.6694C29.2044 11.5395 29.1661 11.4098 29.0853 11.3073C28.1094 10.1896 26.9807 9.21511 25.7327 8.41268C25.6765 8.37661 25.6138 8.35194 25.5481 8.3401C25.4824 8.32825 25.4151 8.32946 25.3498 8.34366C25.2846 8.35785 25.2228 8.38475 25.168 8.42282C25.1132 8.46089 25.0664 8.50939 25.0303 8.56554C24.9943 8.62169 24.9696 8.6844 24.9578 8.75008C24.9459 8.81577 24.9471 8.88314 24.9613 8.94835C24.9755 9.01357 25.0024 9.07535 25.0405 9.13017C25.0785 9.18499 25.127 9.23178 25.1832 9.26786ZM11.6761 15.6126C12.6146 15.6126 13.3773 16.352 13.3773 17.262C13.3773 17.3967 13.4309 17.5258 13.5261 17.6211C13.6213 17.7163 13.7505 17.7698 13.8852 17.7698C14.0199 17.7698 14.149 17.7163 14.2443 17.6211C14.3395 17.5258 14.393 17.3967 14.393 17.262C14.393 15.7924 13.1742 14.5969 11.6761 14.5969C10.1882 14.5969 8.97656 15.7924 8.97656 17.262C8.97656 18.7316 10.1882 19.927 11.6863 19.927C12.6349 19.9392 13.3773 20.6695 13.3773 21.5917C13.3773 22.5007 12.6146 23.2411 11.6761 23.2411C10.7478 23.2411 9.99221 22.5007 9.99221 21.5917C9.99221 21.457 9.9387 21.3278 9.84347 21.2326C9.74823 21.1374 9.61907 21.0839 9.48438 21.0839C9.3497 21.0839 9.22053 21.1374 9.1253 21.2326C9.03006 21.3278 8.97656 21.457 8.97656 21.5917C8.97656 23.0613 10.1882 24.2567 11.6761 24.2567C13.1752 24.2567 14.393 23.0613 14.393 21.5917C14.393 20.1088 13.2098 18.9307 11.6761 18.9114C10.7478 18.9114 9.99221 18.171 9.99221 17.262C9.99221 16.353 10.7478 15.6126 11.6761 15.6126ZM21.8062 23.497C21.8062 23.3623 21.7527 23.2332 21.6574 23.1379C21.5622 23.0427 21.433 22.9892 21.2984 22.9892H17.4277V19.9352H21.2973C21.432 19.9352 21.5612 19.8817 21.6564 19.7864C21.7517 19.6912 21.8052 19.562 21.8052 19.4273C21.8052 19.2927 21.7517 19.1635 21.6564 19.0683C21.5612 18.973 21.432 18.9195 21.2973 18.9195H17.4277V15.8645H21.2973C21.432 15.8645 21.5612 15.811 21.6564 15.7157C21.7517 15.6205 21.8052 15.4913 21.8052 15.3566C21.8052 15.222 21.7517 15.0928 21.6564 14.9976C21.5612 14.9023 21.432 14.8488 21.2973 14.8488H16.9199C16.7852 14.8488 16.6561 14.9023 16.5608 14.9976C16.4656 15.0928 16.4121 15.222 16.4121 15.3566V23.497C16.4121 23.6317 16.4656 23.7609 16.5608 23.8561C16.6561 23.9513 16.7852 24.0049 16.9199 24.0049H21.2973C21.432 24.0049 21.5612 23.9513 21.6564 23.8561C21.7517 23.7609 21.8052 23.6317 21.8052 23.497H21.8062ZM27.4918 23.9744C28.6276 23.9733 29.7166 23.5216 30.5198 22.7184C31.323 21.9153 31.7747 20.8262 31.7757 19.6904C31.7757 17.3158 29.8541 15.3841 27.4918 15.3841C26.3502 15.3854 25.2559 15.8396 24.4489 16.647C23.6419 17.4543 23.1883 18.5489 23.1875 19.6904C23.1875 22.0528 25.1182 23.9734 27.4918 23.9734V23.9744ZM27.4918 16.3997C29.2945 16.3997 30.7601 17.8754 30.7601 19.6904C30.759 20.5568 30.4143 21.3874 29.8016 21.9999C29.1888 22.6125 28.3581 22.9569 27.4918 22.9577C25.6788 22.9577 24.2031 21.4921 24.2031 19.6904C24.2039 18.8183 24.5506 17.982 25.1671 17.3651C25.7836 16.7482 26.6196 16.4011 27.4918 16.3997Z" fill="#CAEF45"/>
</svg>
